<?xml version="1.0" encoding="UTF-8"?>
<svg xmlns="http://www.w3.org/2000/svg" xmlns:xlink="http://www.w3.org/1999/xlink" width="500px" height="500px" viewBox="0 0 500 500" version="1.1">
<defs>
<clipPath id="clip1">
  <path d="M 371.628906 222.09375 L 402 222.09375 L 402 280.726562 L 371.628906 280.726562 Z M 371.628906 222.09375 "/>
</clipPath>
<clipPath id="clip2">
  <path d="M 385 208.484375 L 395 208.484375 L 395 218 L 385 218 Z M 385 208.484375 "/>
</clipPath>
<clipPath id="clip3">
  <path d="M 398 213.890625 L 448.445312 213.890625 L 448.445312 300.726562 L 398 300.726562 Z M 398 213.890625 "/>
</clipPath>
<clipPath id="clip4">
  <path d="M 427.261719 228.332031 L 466.832031 228.332031 L 466.832031 293.890625 L 427.261719 293.890625 Z M 427.261719 228.332031 "/>
</clipPath>
</defs>
<g id="surface1">
<path style=" stroke:none;fill-rule:nonzero;fill:rgb(20%,24.313725%,59.607843%);fill-opacity:1;" d="M 0 328.71875 L 337.449219 328.71875 L 337.449219 171.667969 L 0 171.667969 Z M 0 328.71875 "/>
<path style=" stroke:none;fill-rule:nonzero;fill:rgb(100%,95.686275%,37.254902%);fill-opacity:1;" d="M 337.449219 328.71875 L 500.070312 328.71875 L 500.070312 171.667969 L 337.449219 171.667969 Z M 337.449219 328.71875 "/>
<path style=" stroke:none;fill-rule:nonzero;fill:rgb(100%,100%,100%);fill-opacity:1;" d="M 22.429688 201.046875 L 33.867188 201.046875 L 33.867188 214.988281 L 45.863281 201.046875 L 61.082031 201.046875 L 47.566406 214.9375 L 61.695312 237.9375 L 47.609375 237.9375 L 39.804688 222.785156 L 33.867188 228.945312 L 33.867188 237.9375 L 22.429688 237.9375 "/>
<path style=" stroke:none;fill-rule:nonzero;fill:rgb(100%,100%,100%);fill-opacity:1;" d="M 71.742188 201.046875 L 83.171875 201.046875 L 83.171875 213.949219 L 95.710938 213.949219 L 95.710938 201.046875 L 107.199219 201.046875 L 107.199219 237.9375 L 95.710938 237.9375 L 95.710938 223.011719 L 83.171875 223.011719 L 83.171875 237.9375 L 71.742188 237.9375 "/>
<path style=" stroke:none;fill-rule:nonzero;fill:rgb(100%,100%,100%);fill-opacity:1;" d="M 141.359375 223.855469 L 137.296875 210.601562 L 133.25 223.855469 Z M 143.753906 231.84375 L 130.78125 231.84375 L 128.953125 237.9375 L 117.265625 237.9375 L 131.195312 201.046875 L 143.6875 201.046875 L 157.582031 237.9375 L 145.609375 237.9375 "/>
<path style=" stroke:none;fill-rule:nonzero;fill:rgb(100%,100%,100%);fill-opacity:1;" d="M 179.089844 216 L 183.921875 216 C 184.445312 216 185.460938 215.828125 186.960938 215.496094 C 187.722656 215.34375 188.34375 214.957031 188.820312 214.335938 C 189.300781 213.714844 189.542969 213.003906 189.542969 212.195312 C 189.542969 211.007812 189.167969 210.089844 188.402344 209.453125 C 187.644531 208.816406 186.21875 208.492188 184.128906 208.492188 L 179.089844 208.492188 Z M 167.59375 237.9375 L 167.59375 201.046875 L 186.679688 201.046875 C 190.210938 201.046875 192.917969 201.351562 194.789062 201.949219 C 196.65625 202.5625 198.167969 203.675781 199.3125 205.3125 C 200.457031 206.949219 201.03125 208.941406 201.03125 211.285156 C 201.03125 213.332031 200.589844 215.101562 199.714844 216.585938 C 198.832031 218.070312 197.628906 219.273438 196.09375 220.195312 C 195.113281 220.78125 193.773438 221.273438 192.066406 221.648438 C 193.429688 222.109375 194.417969 222.5625 195.039062 223.015625 C 195.464844 223.324219 196.070312 223.96875 196.871094 224.960938 C 197.664062 225.953125 198.199219 226.722656 198.472656 227.261719 L 204.039062 237.9375 L 191.109375 237.9375 L 184.988281 226.664062 C 184.210938 225.199219 183.515625 224.253906 182.90625 223.820312 C 182.078125 223.246094 181.140625 222.960938 180.101562 222.960938 L 179.089844 222.960938 L 179.089844 237.9375 "/>
<path style=" stroke:none;fill-rule:nonzero;fill:rgb(100%,100%,100%);fill-opacity:1;" d="M 234.261719 223.855469 L 230.199219 210.601562 L 226.15625 223.855469 Z M 236.652344 231.84375 L 223.6875 231.84375 L 221.851562 237.9375 L 210.167969 237.9375 L 224.09375 201.046875 L 236.59375 201.046875 L 250.492188 237.9375 L 238.507812 237.9375 "/>
<path style=" stroke:none;fill-rule:nonzero;fill:rgb(100%,100%,100%);fill-opacity:1;" d="M 260.398438 201.046875 L 288.714844 201.046875 L 288.714844 208.980469 L 271.882812 208.980469 L 271.882812 215.40625 L 286.277344 215.40625 L 286.277344 222.859375 L 271.882812 222.859375 L 271.882812 237.9375 L 260.398438 237.9375 "/>
<path style=" stroke:none;fill-rule:nonzero;fill:rgb(100%,100%,100%);fill-opacity:1;" d="M 301.523438 237.9375 L 312.984375 237.9375 L 312.984375 201.046875 L 301.523438 201.046875 Z M 301.523438 237.9375 "/>
<path style=" stroke:none;fill-rule:nonzero;fill:rgb(100%,100%,100%);fill-opacity:1;" d="M 22.460938 262.898438 L 33.152344 262.898438 L 47.105469 283.320312 L 47.105469 262.898438 L 57.894531 262.898438 L 57.894531 299.792969 L 47.105469 299.792969 L 33.226562 279.484375 L 33.226562 299.792969 L 22.460938 299.792969 "/>
<path style=" stroke:none;fill-rule:nonzero;fill:rgb(100%,100%,100%);fill-opacity:1;" d="M 85.339844 285.710938 L 81.28125 272.457031 L 77.230469 285.710938 Z M 87.734375 293.703125 L 74.765625 293.703125 L 72.933594 299.792969 L 61.246094 299.792969 L 75.171875 262.898438 L 87.667969 262.898438 L 101.5625 299.792969 L 89.582031 299.792969 "/>
<path style=" stroke:none;fill-rule:nonzero;fill:rgb(100%,100%,100%);fill-opacity:1;" d="M 99.058594 262.898438 L 133.828125 262.898438 L 133.828125 272.015625 L 122.160156 272.015625 L 122.160156 299.792969 L 110.726562 299.792969 L 110.726562 272.015625 L 99.058594 272.015625 "/>
<path style=" stroke:none;fill-rule:nonzero;fill:rgb(100%,100%,100%);fill-opacity:1;" d="M 139.484375 299.792969 L 150.9375 299.792969 L 150.9375 262.898438 L 139.484375 262.898438 Z M 139.484375 299.792969 "/>
<path style=" stroke:none;fill-rule:nonzero;fill:rgb(100%,100%,100%);fill-opacity:1;" d="M 169.144531 281.421875 C 169.144531 285.152344 169.84375 287.835938 171.234375 289.460938 C 172.625 291.09375 174.527344 291.90625 176.921875 291.90625 C 179.386719 291.90625 181.292969 291.105469 182.644531 289.515625 C 183.992188 287.917969 184.671875 285.050781 184.671875 280.921875 C 184.671875 277.4375 183.96875 274.898438 182.550781 273.292969 C 181.144531 271.6875 179.234375 270.890625 176.820312 270.890625 C 174.507812 270.890625 172.652344 271.707031 171.25 273.332031 C 169.847656 274.960938 169.144531 277.660156 169.144531 281.421875 M 157.710938 281.375 C 157.710938 275.347656 159.402344 270.652344 162.765625 267.296875 C 166.136719 263.941406 170.828125 262.257812 176.84375 262.257812 C 183.007812 262.257812 187.765625 263.90625 191.101562 267.210938 C 194.4375 270.507812 196.101562 275.125 196.101562 281.066406 C 196.101562 285.382812 195.375 288.921875 193.917969 291.683594 C 192.457031 294.445312 190.351562 296.59375 187.59375 298.128906 C 184.84375 299.664062 181.414062 300.429688 177.300781 300.429688 C 173.125 300.429688 169.660156 299.769531 166.925781 298.441406 C 164.183594 297.117188 161.964844 295.023438 160.265625 292.148438 C 158.5625 289.273438 157.710938 285.6875 157.710938 281.375 "/>
<path style=" stroke:none;fill-rule:nonzero;fill:rgb(100%,100%,100%);fill-opacity:1;" d="M 202.320312 262.898438 L 213.015625 262.898438 L 226.964844 283.320312 L 226.964844 262.898438 L 237.765625 262.898438 L 237.765625 299.792969 L 226.964844 299.792969 L 213.089844 279.484375 L 213.089844 299.792969 L 202.320312 299.792969 "/>
<path style=" stroke:none;fill-rule:nonzero;fill:rgb(100%,100%,100%);fill-opacity:1;" d="M 265.203125 285.710938 L 261.144531 272.457031 L 257.097656 285.710938 Z M 267.605469 293.703125 L 254.632812 293.703125 L 252.800781 299.792969 L 241.117188 299.792969 L 255.042969 262.898438 L 267.539062 262.898438 L 281.433594 299.792969 L 269.453125 299.792969 "/>
<path style=" stroke:none;fill-rule:nonzero;fill:rgb(100%,100%,100%);fill-opacity:1;" d="M 285.082031 262.898438 L 296.519531 262.898438 L 296.519531 290.703125 L 314.40625 290.703125 L 314.40625 299.792969 L 285.082031 299.792969 "/>
<path style=" stroke:none;fill-rule:nonzero;fill:rgb(13.72549%,12.156863%,12.54902%);fill-opacity:1;" d="M 418.429688 308.648438 C 386.679688 308.648438 360.9375 283.011719 360.9375 251.378906 C 360.9375 219.742188 386.679688 194.105469 418.429688 194.105469 C 450.179688 194.105469 475.914062 219.742188 475.914062 251.378906 C 475.914062 283.011719 450.179688 308.648438 418.429688 308.648438 M 480.0625 241.242188 C 479.386719 237.175781 478.332031 233.242188 476.90625 229.480469 C 479.242188 224.101562 482.878906 221.769531 482.878906 221.769531 L 476.472656 210.738281 C 476.472656 210.738281 472.648438 212.707031 466.84375 212.0625 C 464.246094 208.894531 461.335938 205.980469 458.171875 203.367188 C 457.554688 197.644531 459.507812 193.890625 459.507812 193.890625 L 448.429688 187.515625 C 448.429688 187.515625 446.179688 191.007812 440.992188 193.332031 C 437.054688 191.8125 432.917969 190.679688 428.628906 189.976562 C 425.378906 185.417969 425.199219 181.332031 425.199219 181.332031 L 412.398438 181.332031 C 412.398438 181.332031 412.222656 185.34375 409.0625 189.847656 C 404.582031 190.515625 400.269531 191.664062 396.164062 193.226562 C 391.253906 190.90625 389.128906 187.582031 389.128906 187.582031 L 378.050781 193.972656 C 378.050781 193.972656 379.851562 197.414062 379.460938 202.746094 C 375.921875 205.5625 372.699219 208.761719 369.847656 212.269531 C 364.558594 212.628906 361.136719 210.863281 361.136719 210.863281 L 357.9375 216.390625 L 354.734375 221.910156 C 354.734375 221.910156 357.941406 223.949219 360.269531 228.640625 C 358.59375 232.886719 357.375 237.355469 356.671875 241.996094 C 352.316406 244.882812 348.53125 245.042969 348.53125 245.042969 L 348.53125 257.796875 C 348.53125 257.796875 352.328125 257.96875 356.679688 260.855469 C 357.394531 265.515625 358.628906 270 360.324219 274.265625 C 358.003906 278.945312 354.804688 280.984375 354.804688 280.984375 L 358.007812 286.507812 L 361.21875 292.023438 C 361.21875 292.023438 364.644531 290.246094 369.9375 290.613281 C 372.804688 294.113281 376.03125 297.300781 379.585938 300.109375 C 379.964844 305.429688 378.171875 308.871094 378.171875 308.871094 L 383.71875 312.0625 L 389.257812 315.246094 C 389.257812 315.246094 391.394531 311.917969 396.304688 309.59375 C 400.402344 311.136719 404.703125 312.265625 409.15625 312.929688 C 412.308594 317.433594 412.488281 321.429688 412.488281 321.429688 L 425.285156 321.429688 C 425.285156 321.429688 425.46875 317.332031 428.734375 312.761719 C 433.03125 312.054688 437.183594 310.90625 441.136719 309.371094 C 446.316406 311.6875 448.554688 315.179688 448.554688 315.179688 L 454.097656 311.984375 L 459.636719 308.789062 C 459.636719 308.789062 457.671875 305.027344 458.292969 299.285156 C 461.457031 296.671875 464.351562 293.75 466.945312 290.578125 C 472.738281 289.925781 476.550781 291.898438 476.550781 291.898438 L 479.75 286.371094 L 482.945312 280.851562 C 482.945312 280.851562 479.296875 278.523438 476.960938 273.136719 C 478.367188 269.386719 479.421875 265.46875 480.078125 261.417969 C 484.808594 257.902344 489.148438 257.707031 489.148438 257.707031 L 489.148438 244.960938 C 489.148438 244.960938 484.800781 244.773438 480.0625 241.242188 "/>
<g clip-path="url(#clip1)" clip-rule="nonzero">
<path style=" stroke:none;fill-rule:nonzero;fill:rgb(13.72549%,12.156863%,12.54902%);fill-opacity:1;" d="M 401.5625 230.164062 C 401.957031 235.738281 401.183594 238.980469 399.292969 242.648438 C 398.289062 244.601562 396.316406 246.648438 396.171875 248.023438 C 395.808594 251.136719 398.671875 253.515625 400.148438 256.25 C 401.574219 268.703125 397.152344 280.480469 385.640625 280.632812 C 375.445312 280.746094 370.164062 270.210938 371.976562 258.234375 C 372.617188 254.089844 375.1875 247.039062 377.386719 247.175781 C 379.675781 247.320312 379.390625 250.140625 379.378906 253.136719 C 378.128906 254.148438 376.53125 254.84375 373.96875 254.542969 C 373.289062 264.019531 378.441406 267.667969 384.210938 270.703125 C 388.851562 271.09375 394.984375 270.585938 394.734375 265.886719 C 394.585938 262.804688 389.195312 260.265625 388.484375 256.25 C 387.371094 249.992188 393.40625 246.515625 393.601562 241.796875 C 393.667969 240.339844 392.566406 239.242188 392.746094 236.984375 C 392.1875 237.554688 388.703125 237.667969 386.496094 237.535156 C 381.46875 230.804688 387.003906 219.859375 396.726562 222.511719 C 398.738281 224.675781 400.199219 227.382812 401.5625 230.164062 "/>
</g>
<g clip-path="url(#clip2)" clip-rule="nonzero">
<path style=" stroke:none;fill-rule:nonzero;fill:rgb(13.72549%,12.156863%,12.54902%);fill-opacity:1;" d="M 394.734375 209.765625 C 395.660156 214.777344 392.894531 218.46875 387.058594 217.695312 C 385.972656 216.007812 385.050781 214.367188 385.347656 212.320312 C 386.039062 207.703125 390.496094 207.800781 394.734375 209.765625 "/>
</g>
<path style=" stroke:none;fill-rule:nonzero;fill:rgb(13.72549%,12.156863%,12.54902%);fill-opacity:1;" d="M 432.578125 217.695312 C 436.398438 221.859375 431.410156 227.984375 425.753906 225.347656 C 423.191406 219.890625 426.941406 215.027344 432.578125 217.695312 "/>
<path style=" stroke:none;fill-rule:nonzero;fill:rgb(13.72549%,12.156863%,12.54902%);fill-opacity:1;" d="M 425.179688 242.074219 C 425.671875 247.433594 424.621094 254.089844 424.046875 259.363281 C 423.320312 265.949219 418.539062 274.402344 415.226562 277.796875 C 411.953125 281.125 405.101562 285.558594 400.148438 286.859375 C 395.902344 287.96875 386.039062 289.085938 385.640625 285.726562 C 385.230469 282.253906 389.539062 282.921875 391.332031 282.617188 C 399.507812 281.15625 410.261719 273.320312 414.371094 267.3125 C 420.671875 258.070312 421.609375 248.058594 420.066406 233.003906 C 415.753906 232.527344 415.183594 236.71875 414.652344 241.796875 C 414.421875 244.09375 414.621094 254.378906 412.660156 254.265625 C 410.804688 254.148438 411.460938 246.957031 411.527344 244.058594 C 411.773438 233.660156 411.792969 221.007812 412.941406 211.75 C 421.597656 207.210938 421.628906 219.945312 422.628906 226.492188 C 423.503906 232.308594 424.71875 236.996094 425.179688 242.074219 "/>
<g clip-path="url(#clip3)" clip-rule="nonzero">
<path style=" stroke:none;fill-rule:nonzero;fill:rgb(13.72549%,12.156863%,12.54902%);fill-opacity:1;" d="M 447.378906 232.722656 C 447.796875 238.34375 447.761719 242.488281 444.535156 246.042969 C 443.792969 246.859375 442.644531 247.289062 441.964844 248.023438 C 439.535156 250.699219 437.664062 255.039062 440.261719 258.234375 C 441.097656 257.742188 444.636719 257.496094 447.082031 257.679688 C 449.289062 260.589844 447.660156 266.441406 445.949219 269.289062 C 444.519531 271.667969 441.132812 275.15625 438.546875 276.371094 C 436.097656 277.546875 432.761719 277.078125 429.734375 277.796875 C 427.878906 278.238281 425.671875 279.367188 424.046875 280.910156 C 419.324219 285.382812 419.011719 292.507812 415.226562 296.511719 C 411.285156 300.65625 399.425781 303.667969 398.4375 295.9375 C 403.554688 291.671875 413.472656 293.070312 414.09375 284.320312 C 417.8125 279.222656 421.460938 274.074219 426.332031 270.144531 C 430.160156 270.636719 434.582031 270.4375 436 267.589844 C 436.644531 266.277344 436.941406 263.476562 435.144531 263.050781 C 432.289062 262.390625 433.007812 266.800781 430.011719 265.609375 C 427.335938 264.132812 429.128906 258.179688 428.597656 254.542969 C 431.722656 248.414062 445.4375 240.472656 437.992188 231.871094 C 438.910156 226.957031 435.492188 213.21875 441.109375 214.011719 C 444.058594 214.4375 444.800781 220.367188 445.667969 224.214844 C 446.03125 225.824219 447.183594 227.5625 447.378906 228.753906 C 447.578125 230.050781 447.28125 231.511719 447.378906 232.722656 "/>
</g>
<g clip-path="url(#clip4)" clip-rule="nonzero">
<path style=" stroke:none;fill-rule:nonzero;fill:rgb(13.72549%,12.156863%,12.54902%);fill-opacity:1;" d="M 465.585938 259.933594 C 465.867188 263.71875 467.230469 267.492188 466.722656 270.421875 C 466.0625 274.273438 463.019531 276.976562 462.164062 279.777344 C 454.4375 287.253906 443.007812 295.164062 427.464844 293.671875 C 427.542969 290.003906 431.261719 290.476562 433.433594 289.691406 C 436.375 288.640625 440.09375 286.378906 443.957031 284.597656 C 447.367188 283.023438 451.132812 280.925781 453.632812 278.929688 C 458.710938 274.847656 461.742188 270.457031 462.460938 262.492188 C 462.875 257.785156 463.039062 251.15625 460.472656 248.878906 C 458.433594 248.746094 458.84375 251.054688 457.90625 252.003906 C 459.007812 257.460938 458.449219 265.621094 457.625 270.992188 C 456.210938 272.144531 454.324219 272.800781 451.9375 272.976562 C 448.398438 267.550781 454.765625 260.984375 453.074219 252.28125 C 452.65625 250.140625 450.933594 246.78125 451.640625 242.929688 C 452.101562 240.484375 454.175781 238.488281 454.488281 236.683594 C 454.996094 233.851562 453.511719 228.214844 457.332031 228.476562 C 460.320312 228.671875 459.304688 234.636719 460.472656 237.261719 C 461.375 239.324219 464.617188 240.308594 465.585938 243.207031 C 466.886719 247.09375 465.09375 253.089844 465.585938 259.933594 "/>
</g>
</g>
</svg>
